<svg width="23" height="23" viewBox="0 0 23 23" fill="none" xmlns="http://www.w3.org/2000/svg">
    <path d="M17.25 3.83334H5.75004C4.69149 3.83334 3.83337 4.69146 3.83337 5.75001V17.25C3.83337 18.3086 4.69149 19.1667 5.75004 19.1667H17.25C18.3086 19.1667 19.1667 18.3086 19.1667 17.25V5.75001C19.1667 4.69146 18.3086 3.83334 17.25 3.83334Z" stroke="white" stroke-width="2" stroke-linecap="round" stroke-linejoin="round"/>
    <path d="M7.66663 10.5417V15.3333" stroke="white" stroke-width="2" stroke-linecap="round" stroke-linejoin="round"/>
    <path d="M7.66663 7.66666V7.67624" stroke="white" stroke-width="2" stroke-linecap="round" stroke-linejoin="round"/>
    <path d="M11.5 15.3333V10.5417" stroke="white" stroke-width="2" stroke-linecap="round" stroke-linejoin="round"/>
    <path d="M15.3333 15.3333V12.4583C15.3333 11.95 15.1314 11.4625 14.772 11.103C14.4125 10.7436 13.925 10.5417 13.4167 10.5417C12.9083 10.5417 12.4208 10.7436 12.0614 11.103C11.7019 11.4625 11.5 11.95 11.5 12.4583" stroke="white" stroke-width="2" stroke-linecap="round" stroke-linejoin="round"/>
</svg>
